<?xml version="1.0" encoding="UTF-8" standalone="no"?>
<!-- Created with Inkscape (http://www.inkscape.org/) -->

<svg
	width="129.09119mm"
	height="129.09119mm"
	viewBox="0 0 129.09119 129.09119"
	version="1.1"
	id="svg5"
	xml:space="preserve"
	xmlns:xlink="http://www.w3.org/1999/xlink"
	xmlns="http://www.w3.org/2000/svg"
	xmlns:svg="http://www.w3.org/2000/svg"><defs
     id="defs2"><linearGradient
       id="linearGradient3689"><stop
         style="stop-color:#82df78;stop-opacity:1;"
         offset="0"
         id="stop3685" /><stop
         style="stop-color:#ff914d;stop-opacity:1;"
         offset="1"
         id="stop3687" /></linearGradient><linearGradient
       xlink:href="#linearGradient3689"
       id="linearGradient3691"
       x1="39.425934"
       y1="94.166222"
       x2="132.74388"
       y2="187.48416"
       gradientUnits="userSpaceOnUse"
       gradientTransform="translate(-38.3676,-93.649801)" /></defs><path
     style="display:inline;fill:url(#linearGradient3691);fill-opacity:1;stroke:none;stroke-width:2.64583;stroke-linecap:round;stroke-dasharray:none;stroke-opacity:1;paint-order:stroke fill markers"
     id="path3642"
     d="M 129.09119,64.545586 A 64.545593,64.545593 0 0 1 64.547689,129.09118 64.545593,64.545593 0 0 1 1.3615792e-7,64.549778 64.545593,64.545593 0 0 1 64.539305,-7.3230392e-6 64.545593,64.545593 0 0 1 129.09119,64.537201" /><g
     id="layer2"
     style="display:inline"
     transform="translate(-38.3676,-93.649801)"><path
       style="fill:none;stroke:#ffffff;stroke-width:2.64583;stroke-linecap:butt;stroke-linejoin:miter;stroke-dasharray:none;stroke-opacity:1"
       d="m 76.711583,130.47924 c 0,0 -16.270708,5.92052 -18.630349,27.47189 -2.359639,21.55138 13.685911,28.78761 14.629767,29.25953 0.943856,0.47193 -6.449682,19.66367 10.539725,16.51748 0,0 2.516949,1.73041 5.348517,-10.38241 0,0 1.101166,-3.77542 17.618647,-0.62924 l 5.60088,0.14586 c 0,0 2.00222,-0.44494 2.00222,3.00333 0,3.44827 -0.88987,9.23246 1.66852,9.45493 2.55839,0.22247 12.68073,1.00111 12.68073,-4.33814 0,-5.33926 0,-10.56728 2.8921,-12.79197 2.8921,-2.22469 9.00999,-2.33592 14.34925,-19.24356 0,0 6.34036,1.89098 6.4516,-5.11679 0.11123,-7.00777 1.89098,-12.45826 -5.45049,-11.12345 0,0 -7.45271,-12.23579 -11.90209,-13.45937 -0.65646,-0.70022 -0.39478,-1.10021 -5.92941,-16.57312 -1.70599,-4.99679 -1.05695,-2.39955 -6.01439,1.48694 0,0 -3.70133,2.51069 -6.17895,6.08947"
       id="path490" /><path
       style="display:inline;fill:none;stroke:#ffffff;stroke-width:2.64583;stroke-linecap:round;stroke-dasharray:none;stroke-opacity:1;paint-order:stroke fill markers"
       id="path2679"
       d="m 116.67247,131.03397 a 20.103008,20.103008 0 0 1 -20.102351,20.103 20.103008,20.103008 0 0 1 -20.103662,-20.1017 20.103008,20.103008 0 0 1 20.10105,-20.10431 20.103008,20.103008 0 0 1 20.104963,20.10039" /><text
       xml:space="preserve"
       style="font-style:normal;font-weight:normal;font-size:38.0627px;line-height:1.25;font-family:sans-serif;fill:#ffffff;fill-opacity:1;stroke:none;stroke-width:0.951568"
       x="85.569344"
       y="144.37494"
       id="text3538"><tspan
         id="tspan3536"
         style="fill:#ffffff;fill-opacity:1;stroke-width:0.951568"
         x="85.569344"
         y="144.37494">$</tspan></text><path
       style="fill:none;stroke:#ffffff;stroke-width:2.64583;stroke-linecap:butt;stroke-linejoin:miter;stroke-dasharray:none;stroke-opacity:1"
       d="m 57.937137,159.49841 c 0,0 -1.389905,5.85178 -5.591554,5.75802 -4.20165,-0.0937 -5.066137,-1.22502 -3.986817,-4.5536 1.079324,-3.32858 5.798599,-3.06576 4.193917,0.23452 -1.75924,3.61815 -4.848494,3.90243 -7.576371,4.92778"
       id="path5886" /><path
       style="fill:none;stroke:#ffffff;stroke-width:2.64583;stroke-linecap:round;stroke-dasharray:none;stroke-opacity:1;paint-order:stroke fill markers"
       id="path349"
       d="m -119.8803,-154.29382 a 7.8077154,12.324269 0 0 1 -3.99034,10.75079 7.8077154,12.324269 0 0 1 -7.89229,-0.23818 7.8077154,12.324269 0 0 1 -3.72709,-10.9837"
       transform="scale(-1)" />
	</g>
</svg>